#!OML:ASF E:\emotionWalksFemale\Project 1\Capture day 1\Session 1\Female1.ASF
:FULLY-SPECIFIED
:DEGREES
1
root 7.70877 15.5452 22.4072 -178.712 6.92056 -179.285
lowerback 8.90121 1.78001 0.632141
upperback -5.44046 2.63996 0.25398
thorax -10.8365 1.28582 -0.569777
lowerneck -4.60179 -2.47165 -7.26896
upperneck 2.90041 -3.11307 7.35294
head 2.02386 -1.45987 3.62498
rclavicle 5.0628e-016 6.06293e-015
rhumerus -51.3691 12.8463 -98.3811
rradius 37.4579
rwrist 15.3672
rhand -3.31143 -55.2547
rfingers 7.12502
rthumb 22.4151 -83.9741
lclavicle 5.0628e-016 6.06293e-015
lhumerus -49.8376 -6.12891 92.499
lradius 36.0025
lwrist -9.8399
lhand -0.33819 -33.0278
lfingers 7.12502
lthumb 25.2664 -4.68087
rfemur 0.395326 22.2122 26.0485
rtibia 12.0841
rfoot -14.178 -33.1699
rtoes 0.844606
lfemur -4.67651 -24.5854 -23.9171
ltibia 21.359
lfoot -24.5117 22.3643
ltoes -5.61649
2
root 7.71021 15.5455 22.4085 -178.704 6.70938 -179.3
lowerback 8.64056 1.729 0.68885
upperback -5.26982 2.56153 0.220444
thorax -10.4857 1.24327 -0.608895
lowerneck -4.5237 -2.47062 -7.35601
upperneck 2.5745 -3.1009 7.48652
head 1.90655 -1.45236 3.68783
rclavicle -1.4387e-014 -2.83268e-015
rhumerus -51.1362 13.1081 -98.5227
rradius 37.3128
rwrist 15.3998
rhand -3.53062 -54.9805
rfingers 7.12502
rthumb 22.2046 -83.7251
lclavicle -1.4387e-014 -2.83268e-015
lhumerus -49.6256 -6.0522 92.372
lradius 36.0315
lwrist -9.77236
lhand -0.5344 -32.7882
lfingers 7.12502
lthumb 25.0784 -4.41493
rfemur 0.406739 22.1206 26.0523
rtibia 12.0734
rfoot -14.3127 -33.2421
rtoes 1.11778
lfemur -4.72763 -24.6274 -23.8967
ltibia 21.363
lfoot -24.44 22.2595
ltoes -5.53304
3
root 7.71155 15.5463 22.4089 -178.695 6.5238 -179.352
lowerback 8.63486 1.70204 0.63261
upperback -5.25225 2.51748 0.230415
thorax -10.466 1.22634 -0.558341
lowerneck -4.46862 -2.46816 -7.49459
upperneck 2.48699 -3.09239 7.58676
head 1.87312 -1.44842 3.7506
rclavicle 2.67272e-014 1.40143e-014
rhumerus -51.2118 13.3508 -98.6492
rradius 37.1948
rwrist 15.3658
rhand -3.66518 -54.929
rfingers 7.12502
rthumb 22.0755 -83.6889
lclavicle 2.67272e-014 1.40143e-014
lhumerus -49.6562 -5.93371 92.3397
lradius 36.0508
lwrist -9.77936
lhand -0.575341 -32.8672
lfingers 7.12502
lthumb 25.0392 -4.48842
rfemur 0.410502 22.1266 26.011
rtibia 12.08
rfoot -14.5516 -33.3432
rtoes 1.51347
lfemur -4.75542 -24.6504 -23.9267
ltibia 21.3301
lfoot -24.213 22.2539
ltoes -6.70215
4
root 7.71339 15.5485 22.4086 -178.597 6.37157 -179.356
lowerback 8.61909 1.69853 0.591075
upperback -5.28783 2.51293 0.253946
thorax -10.4992 1.22908 -0.50954
lowerneck -4.49395 -2.46634 -7.58445
upperneck 2.48478 -3.08472 7.63101
head 1.87994 -1.44432 3.78421
rclavicle 2.20371e-014 6.70898e-015
rhumerus -51.3013 13.4127 -98.6672
rradius 37.0844
rwrist 15.5602
rhand -4.06254 -54.662
rfingers 7.12502
rthumb 21.6939 -83.4665
lclavicle 2.20371e-014 6.70898e-015
lhumerus -49.6912 -5.78793 92.2995
lradius 36.0852
lwrist -9.75765
lhand -0.252345 -32.9345
lfingers 7.12502
lthumb 25.3486 -4.59919
rfemur 0.316137 22.0874 25.9733
rtibia 12.0682
rfoot -14.6915 -33.3774
rtoes 1.89681
lfemur -4.88394 -24.7794 -23.8684
ltibia 21.3144
lfoot -24.1308 22.3463
ltoes -7.42427
5
root 7.71487 15.5508 22.4086 -178.462 6.24239 -179.327
lowerback 8.38347 1.7174 0.671526
upperback -5.22822 2.54144 0.221139
thorax -10.2864 1.23789 -0.584424
lowerneck -4.57954 -2.49724 -7.48235
upperneck 2.49358 -3.12452 7.55677
head 1.8973 -1.46296 3.73598
rclavicle -8.88319e-015 -2.48481e-016
rhumerus -51.1903 13.2934 -98.6066
rradius 36.8434
rwrist 16.1914
rhand -4.82078 -53.8153
rfingers 7.12502
rthumb 20.9656 -82.7021
lclavicle -8.88319e-015 -2.48481e-016
lhumerus -49.5493 -5.83627 92.2627
lradius 36.1061
lwrist -9.54799
lhand -0.0281088 -32.9343
lfingers 7.12502
lthumb 25.5634 -4.62966
rfemur 0.176592 21.9763 25.9498
rtibia 12.0526
rfoot -14.6899 -33.3361
rtoes 2.33068
lfemur -5.06242 -24.8221 -23.7424
ltibia 21.2997
lfoot -24.1193 22.2823
ltoes -7.38063
6
root 7.71538 15.5514 22.4091 -178.364 6.22801 -179.311
lowerback 8.2104 1.78464 0.769585
upperback -5.18578 2.63536 0.159921
thorax -10.1274 1.27549 -0.712843
lowerneck -4.58569 -2.51513 -7.40435
upperneck 2.52008 -3.15268 7.54022
head 1.9071 -1.476 3.71387
rclavicle -3.42904e-015 -2.03754e-015
rhumerus -51.1548 13.23 -98.7043
rradius 37.3148
rwrist 15.1804
rhand -4.60198 -54.7104
rfingers 7.12502
rthumb 21.1758 -83.5739
lclavicle -3.42904e-015 -2.03754e-015
lhumerus -49.4679 -5.90013 92.1924
lradius 36.083
lwrist -9.39526
lhand -0.143225 -33.1964
lfingers 7.12502
lthumb 25.4532 -4.87597
rfemur 0.0427499 21.908 25.9108
rtibia 12.0458
rfoot -14.4506 -33.3145
rtoes 2.01497
lfemur -5.16775 -24.7752 -23.6744
ltibia 21.284
lfoot -24.1545 22.1234
ltoes -6.66703
